<?xml version="1.0" encoding="UTF-8"?>
<svg version="1.1" xmlns="http://www.w3.org/2000/svg" width="326" height="59">
<path d="M0 0 C107.58 0 215.16 0 326 0 C326 19.47 326 38.94 326 59 C218.42 59 110.84 59 0 59 C0 39.53 0 20.06 0 0 Z " fill="#ECE9E5" transform="translate(0,0)"/>
<path d="M0 0 C107.58 0 215.16 0 326 0 C326 19.47 326 38.94 326 59 C218.42 59 110.84 59 0 59 C0 39.53 0 20.06 0 0 Z M62 4 C62 21.16 62 38.32 62 56 C147.8 56 233.6 56 322 56 C322 38.84 322 21.68 322 4 C236.2 4 150.4 4 62 4 Z " fill="#2A2A2B" transform="translate(0,0)"/>
<path d="M0 0 C1.14210938 -0.03738281 2.28421875 -0.07476562 3.4609375 -0.11328125 C6.625 0.3125 6.625 0.3125 10.625 4.3125 C6.335 4.3125 2.045 4.3125 -2.375 4.3125 C-2.045 9.2625 -1.715 14.2125 -1.375 19.3125 C5.555 19.8075 5.555 19.8075 12.625 20.3125 C12.625 18.3325 12.625 16.3525 12.625 14.3125 C8.995 14.3125 5.365 14.3125 1.625 14.3125 C1.625 12.9925 1.625 11.6725 1.625 10.3125 C6.575 10.3125 11.525 10.3125 16.625 10.3125 C17.51714652 12.98893957 17.76040211 14.56634378 17.75 17.3125 C17.75386719 18.3334375 17.75386719 18.3334375 17.7578125 19.375 C17.625 21.3125 17.625 21.3125 16.625 24.3125 C13.37530231 24.42888036 10.1261417 24.49980581 6.875 24.5625 C5.49441406 24.61277344 5.49441406 24.61277344 4.0859375 24.6640625 C-2.64411265 24.76159946 -2.64411265 24.76159946 -5.96875 22.71875 C-7.80164675 19.58246001 -7.98031664 17.17958405 -8.125 13.5625 C-8.18171875 12.39203125 -8.2384375 11.2215625 -8.296875 10.015625 C-8.32265625 9.12359375 -8.3484375 8.2315625 -8.375 7.3125 C-10.90258519 10.55096852 -12.29785844 12.69536749 -12.8125 16.8125 C-12.32782648 20.68988817 -11.52379866 23.05225376 -9.375 26.3125 C-5.31364553 29.42570738 -1.52883984 29.83366326 3.4375 30 C4.47680664 30.05124023 4.47680664 30.05124023 5.53710938 30.10351562 C7.23252849 30.18536344 8.92873458 30.25062365 10.625 30.3125 C7.29779067 33.9565864 4.26843315 34.52514698 -0.5625 34.75 C-5.82906543 34.69419533 -8.83552054 33.53872379 -12.78125 30.078125 C-16.90982434 25.50431225 -17.95061634 20.49769517 -17.7265625 14.51953125 C-16.93890727 9.57480674 -14.44894161 6.28416145 -10.75 2.9375 C-6.93943295 0.33026991 -4.62688119 0.09877612 0 0 Z " fill="#E5E2DF" transform="translate(30.375,12.6875)"/>
<path d="M0 0 C6.625 -0.25 6.625 -0.25 10 2 C10.375 5.5 10.375 5.5 10 9 C6.3558226 11.4294516 4.28758728 11.16179575 0 11 C0 7.37 0 3.74 0 0 Z " fill="#3A3A3B" transform="translate(97,24)"/>
<path d="M0 0 C0.99 0 1.98 0 3 0 C4.6875 2 4.6875 2 6 4 C6.33 2.68 6.66 1.36 7 0 C7.99 0 8.98 0 10 0 C10 3.63 10 7.26 10 11 C6 10 6 10 4 7 C3.67 8.32 3.34 9.64 3 11 C2.01 11 1.02 11 0 11 C0 7.37 0 3.74 0 0 Z " fill="#323232" transform="translate(169,24)"/>
<path d="M0 0 C1.65 0.33 3.3 0.66 5 1 C5.99 4.3 6.98 7.6 8 11 C5.33333333 10.33333333 2.66666667 9.66666667 0 9 C0 9.66 0 10.32 0 11 C-1.32 10.67 -2.64 10.34 -4 10 C-2.68 6.7 -1.36 3.4 0 0 Z " fill="#464546" transform="translate(252,24)"/>
<path d="M0 0 C0.99 0 1.98 0 3 0 C3 1.32 3 2.64 3 4 C4.32 4 5.64 4 7 4 C7 2.68 7 1.36 7 0 C7.99 0 8.98 0 10 0 C10 3.63 10 7.26 10 11 C9.01 11 8.02 11 7 11 C7 9.68 7 8.36 7 7 C5.68 7 4.36 7 3 7 C3 8.32 3 9.64 3 11 C2.01 11 1.02 11 0 11 C0 7.37 0 3.74 0 0 Z " fill="#3A3A3A" transform="translate(204,24)"/>
<path d="M0 0 C1.65 0.33 3.3 0.66 5 1 C5.99 4.3 6.98 7.6 8 11 C5.33333333 10.33333333 2.66666667 9.66666667 0 9 C0 9.66 0 10.32 0 11 C-1.32 10.67 -2.64 10.34 -4 10 C-2.68 6.7 -1.36 3.4 0 0 Z " fill="#464546" transform="translate(153,24)"/>
<path d="M0 0 C2.64 0 5.28 0 8 0 C8 0.66 8 1.32 8 2 C6.35 2 4.7 2 3 2 C3 2.66 3 3.32 3 4 C4.32 4 5.64 4 7 4 C7 4.99 7 5.98 7 7 C7.66 7.33 8.32 7.66 9 8 C9 8.99 9 9.98 9 11 C6.03 11 3.06 11 0 11 C0 7.37 0 3.74 0 0 Z " fill="#363637" transform="translate(116,24)"/>
<path d="M0 0 C1.98 0 3.96 0 6 0 C6 0.99 6 1.98 6 3 C4.68 2.67 3.36 2.34 2 2 C2 2.66 2 3.32 2 4 C3.32 4.33 4.64 4.66 6 5 C6.38218767 6.65614657 6.71395102 8.32457024 7 10 C6 11 6 11 2.9375 11.0625 C1.968125 11.041875 0.99875 11.02125 0 11 C-0.33 10.01 -0.66 9.02 -1 8 C-0.01 7.67 0.98 7.34 2 7 C1.01 6.34 0.02 5.68 -1 5 C-0.67 3.35 -0.34 1.7 0 0 Z " fill="#383838" transform="translate(234,24)"/>
<path d="M0 0 C1.98 0 3.96 0 6 0 C5.67 0.99 5.34 1.98 5 3 C4.01 2.67 3.02 2.34 2 2 C2 2.66 2 3.32 2 4 C4.475 4.99 4.475 4.99 7 6 C6.125 9.875 6.125 9.875 5 11 C3.00041636 11.04080783 0.99954746 11.04254356 -1 11 C-1 10.01 -1 9.02 -1 8 C-0.01 7.67 0.98 7.34 2 7 C1.01 6.34 0.02 5.68 -1 5 C-0.67 3.35 -0.34 1.7 0 0 Z " fill="#3A3A3B" transform="translate(189,24)"/>
<path d="M0 0 C0.99 0 1.98 0 3 0 C3.66 1.65 4.32 3.3 5 5 C5.66 3.35 6.32 1.7 7 0 C7.99 0 8.98 0 10 0 C9.69078116 1.45903258 9.37751201 2.91720722 9.0625 4.375 C8.88847656 5.18710937 8.71445313 5.99921875 8.53515625 6.8359375 C8 9 8 9 7 11 C5.68 11 4.36 11 3 11 C2.01 7.37 1.02 3.74 0 0 Z " fill="#363637" transform="translate(132,24)"/>
<path d="M0 0 C2.97 0 5.94 0 9 0 C9 0.66 9 1.32 9 2 C8.01 2 7.02 2 6 2 C6 4.97 6 7.94 6 11 C5.01 11 4.02 11 3 11 C3 8.03 3 5.06 3 2 C2.01 2 1.02 2 0 2 C0 1.34 0 0.68 0 0 Z " fill="#333333" transform="translate(267,24)"/>
<path d="M0 0 C0.99 0 1.98 0 3 0 C3 3.63 3 7.26 3 11 C2.01 11 1.02 11 0 11 C0 7.37 0 3.74 0 0 Z " fill="#343435" transform="translate(284,24)"/>
<path d="M0 0 C0.66 1.32 1.32 2.64 2 4 C1.01 4.495 1.01 4.495 0 5 C0 5.99 0 6.98 0 8 C-1.32 7.67 -2.64 7.34 -4 7 C-1.125 1.125 -1.125 1.125 0 0 Z " fill="#353536" transform="translate(252,27)"/>
<path d="M0 0 C0.66 1.32 1.32 2.64 2 4 C1.01 4.495 1.01 4.495 0 5 C0 5.99 0 6.98 0 8 C-1.32 7.67 -2.64 7.34 -4 7 C-1.125 1.125 -1.125 1.125 0 0 Z " fill="#353536" transform="translate(153,27)"/>
<path d="M0 0 C1.32 0 2.64 0 4 0 C3.67 1.65 3.34 3.3 3 5 C2.01 5 1.02 5 0 5 C0 3.35 0 1.7 0 0 Z " fill="#DBD8D5" transform="translate(100,27)"/>
<path d="M0 0 C1.98 0 3.96 0 6 0 C5.67 0.99 5.34 1.98 5 3 C4.01 2.67 3.02 2.34 2 2 C1.67 2.66 1.34 3.32 1 4 C0.34 3.67 -0.32 3.34 -1 3 C-0.67 2.01 -0.34 1.02 0 0 Z " fill="#313132" transform="translate(189,24)"/>
</svg>
